<?xml version="1.0" encoding="UTF-8" standalone="no"?>
<!DOCTYPE svg PUBLIC "-//W3C//DTD SVG 1.1//EN" "http://www.w3.org/Graphics/SVG/1.1/DTD/svg11.dtd">
<svg width="100%" height="100%" viewBox="0 0 3618 1470" version="1.1" xmlns="http://www.w3.org/2000/svg" xmlns:xlink="http://www.w3.org/1999/xlink" xml:space="preserve" xmlns:serif="http://www.serif.com/" style="fill-rule:evenodd;clip-rule:evenodd;stroke-linejoin:round;stroke-miterlimit:2;">
    <g transform="matrix(1,0,0,1,0,-1783)">
        <g id="logo-white" transform="matrix(0.803787,0,0,0.326525,0,1783.08)">
            <rect x="0" y="0" width="4500" height="4500" style="fill:none;"/>
            <g transform="matrix(5.18379,0,0,12.7606,3616.62,3681.98)">
                <path d="M0,14.988L111.16,14.988C113.137,14.988 114.755,13.37 114.755,11.393L114.755,3.595C114.755,1.618 113.137,0 111.16,0L0,0C-1.977,0 -3.595,1.618 -3.595,3.595L-3.595,11.393C-3.595,13.37 -1.977,14.988 0,14.988" style="fill:white;fill-rule:nonzero;"/>
            </g>
            <g transform="matrix(5.18379,0,0,12.7606,3576.81,3129.01)">
                <path d="M0,30.969C0,25.573 4.073,21.182 9.08,21.182L94.37,21.182C99.377,21.182 103.45,25.573 103.45,30.969L103.45,31.081C103.45,36.477 99.377,40.868 94.37,40.868L9.08,40.868C4.073,40.868 0,36.477 0,31.081L0,30.969ZM-5.602,44.223C-2.806,47.08 3.39,46.019 9.08,46.019L94.37,46.019C102.012,46.019 108.229,39.317 108.229,31.081L108.229,30.969C108.229,22.732 102.012,16.031 94.37,16.031L34.334,16.031C34.936,14.939 35.28,13.694 35.28,12.372L35.28,8.072C35.28,3.75 31.641,0.246 27.152,0.246L13.993,0.246C11.942,0.246 9.966,-0.501 8.463,-1.845L-5.046,-13.924C-6.653,-15.36 -8.793,-16.111 -10.983,-16.006L-41.802,-14.522C-46.128,-14.313 -49.524,-10.876 -49.524,-6.705L-49.524,11.498C-44.64,7.429 -38.36,4.979 -31.506,4.979C-15.949,4.979 -3.338,17.59 -3.338,33.147C-3.338,37.08 -4.146,40.823 -5.602,44.223" style="fill:white;fill-rule:nonzero;"/>
            </g>
            <g transform="matrix(5.18379,0,0,12.7606,3316.06,3551.68)">
                <path d="M0,0C0,-10.607 8.598,-19.205 19.205,-19.205C29.812,-19.205 38.41,-10.607 38.41,0C38.41,10.607 29.812,19.205 19.205,19.205C8.598,19.205 0,10.607 0,0M-5.366,0C-5.366,13.57 5.635,24.571 19.205,24.571C32.775,24.571 43.776,13.57 43.776,0C43.776,-13.57 32.775,-24.571 19.205,-24.571C5.635,-24.571 -5.366,-13.57 -5.366,0" style="fill:white;fill-rule:nonzero;"/>
            </g>
            <g transform="matrix(0,12.7606,5.18379,0,3415.62,3394.38)">
                <path d="M12.327,-12.327C19.135,-12.327 24.653,-6.808 24.653,-0.001C24.653,6.808 19.135,12.327 12.327,12.327C5.519,12.327 0.001,6.808 0.001,-0.001C0.001,-6.808 5.519,-12.327 12.327,-12.327" style="fill:white;fill-rule:nonzero;"/>
            </g>
            <g transform="matrix(5.18379,0,0,12.7606,3772.62,2924.65)">
                <path d="M0,35.105L48.763,35.105C53.395,35.105 57.184,31.315 57.184,26.684L57.184,8.421C57.184,3.789 53.395,0 48.763,0L0,0C-4.632,0 -8.421,3.789 -8.421,8.421L-8.421,26.684C-8.421,31.315 -4.632,35.105 0,35.105" style="fill:white;fill-rule:nonzero;"/>
            </g>
            <g transform="matrix(5.18379,0,0,12.7606,3405.69,1364.84)">
                <path d="M0,133.796L11.455,131.812C14.361,131.309 16.326,128.52 15.823,125.615L-5.179,4.367C-5.682,1.462 -8.471,-0.503 -11.376,-0L-22.832,1.984C-25.737,2.487 -27.702,5.276 -27.199,8.181L-6.197,129.429C-5.694,132.334 -2.905,134.299 0,133.796" style="fill:white;fill-rule:nonzero;"/>
            </g>
            <g transform="matrix(5.18379,0,0,12.7606,3196.36,1327.98)">
                <path d="M0,-29.901L-22.4,-27.873C-26.357,-27.515 -27.952,-23.064 -24.928,-20.82L0.32,-2.079C3.412,0.216 8.123,-2.138 7.63,-5.732L4.782,-26.5C4.492,-28.616 2.382,-30.117 0,-29.901" style="fill:white;fill-rule:nonzero;"/>
            </g>
            <g transform="matrix(5.18379,0,0,12.7606,3197.56,1276.2)">
                <path d="M0,-23.278L-22.4,-21.25C-23.443,-21.156 -23.977,-20.54 -24.117,-20.041C-24.248,-19.577 -24.082,-19.169 -23.625,-18.83L1.623,-0.089C2.464,0.536 3.472,0.339 4.08,-0.021C4.406,-0.214 4.94,-0.64 4.846,-1.323L1.998,-22.092C1.904,-22.771 1.111,-23.288 0.211,-23.288C0.142,-23.288 0.071,-23.285 0,-23.278M-1.448,4.047L-26.696,-14.694C-28.878,-16.313 -29.789,-18.897 -29.076,-21.436C-28.307,-24.167 -25.87,-26.108 -22.865,-26.38L-0.465,-28.408C3.308,-28.747 6.623,-26.282 7.101,-22.792L9.949,-2.024C10.302,0.552 9.059,3.018 6.702,4.412C5.508,5.119 4.184,5.469 2.872,5.469C1.34,5.469 -0.175,4.992 -1.448,4.047" style="fill:white;fill-rule:nonzero;"/>
            </g>
            <g transform="matrix(5.18379,0,0,12.7606,3203.56,846.831)">
                <path d="M0,41.455C3.451,43.157 12.006,39.162 11.349,34.436L7.551,7.122C7.164,4.34 4.283,1.644 1.021,1.94L-6.319,2.604C-5.695,-2.829 -1.488,-6.684 4.163,-7.51L22.486,-10.186C29.214,-11.168 35.523,-6.468 36.506,0.26L41.571,34.945C42.554,41.672 37.853,47.981 31.125,48.964L12.802,51.64C6.074,52.623 -1.559,50.099 -2.541,43.371L-2.66,40.235L0,41.455Z" style="fill:white;fill-rule:nonzero;"/>
            </g>
            <g transform="matrix(5.18379,0,0,12.7606,706.689,1794.4)">
                <path d="M0,69.567L-25.236,43.309L44.674,43.309C61.495,43.309 74.224,39.675 82.866,32.397C91.504,25.123 95.826,14.892 95.826,1.705C95.826,-11.478 91.504,-21.655 82.866,-28.816C74.224,-35.978 61.495,-39.559 44.674,-39.559L-25.236,-39.559L0,-65.817L0,69.567ZM-55.586,154.14L-55.586,-84.573L47.743,-84.573C69.108,-84.573 87.525,-81.104 102.987,-74.172C118.444,-67.235 130.38,-57.292 138.794,-44.333C147.203,-31.374 151.412,-16.028 151.412,1.705C151.412,19.667 147.203,35.071 138.794,47.913C130.38,60.759 118.444,70.708 102.987,77.752C87.525,84.801 69.108,88.323 47.743,88.323L-25.236,88.323L0,63.429L0,154.14L-55.586,154.14Z" style="fill:rgb(194,64,64);fill-rule:nonzero;"/>
            </g>
            <g transform="matrix(5.18379,0,0,12.7606,1838.04,662.974)">
                <path d="M0,246.899C-19.095,246.899 -37.458,244.34 -55.073,239.225C-72.694,234.11 -86.848,227.46 -97.53,219.275L-78.774,177.671C-68.774,184.95 -56.725,190.917 -42.627,195.574C-28.533,200.236 -14.322,202.565 0,202.565C10.914,202.565 19.721,201.431 26.429,199.155C33.132,196.885 38.078,193.869 41.264,190.118C44.446,186.367 46.039,181.992 46.039,176.988C46.039,170.627 43.534,165.565 38.537,161.814C33.532,158.062 26.883,154.993 18.587,152.606C10.285,150.219 1.247,147.949 -8.525,145.786C-18.302,143.628 -28.133,141.011 -38.022,137.942C-47.911,134.873 -57.009,130.781 -65.305,125.665C-73.606,120.551 -80.196,113.847 -85.083,105.545C-89.974,97.249 -92.415,86.848 -92.415,74.342C-92.415,60.701 -88.781,48.254 -81.503,37.001C-74.23,25.747 -63.145,16.769 -48.254,10.06C-33.366,3.357 -14.662,0 7.845,0C22.849,0 37.684,1.822 52.348,5.457C67.01,9.096 79.799,14.323 90.713,21.143L73.319,62.748C62.631,56.61 51.606,52.006 40.241,48.936C28.87,45.867 17.958,44.333 7.504,44.333C-3.41,44.333 -12.165,45.526 -18.755,47.913C-25.353,50.301 -30.18,53.54 -33.249,57.632C-36.318,61.724 -37.852,66.275 -37.852,71.273C-37.852,77.64 -35.353,82.756 -30.35,86.619C-25.353,90.488 -18.755,93.498 -10.57,95.656C-2.387,97.819 6.705,99.977 16.711,102.135C26.712,104.299 36.601,106.968 46.379,110.149C56.152,113.336 65.136,117.369 73.319,122.256C81.504,127.146 88.154,133.739 93.27,142.035C98.385,150.336 100.942,160.62 100.942,172.897C100.942,186.313 97.244,198.591 89.86,209.727C82.468,220.868 71.273,229.847 56.268,236.667C41.264,243.487 22.509,246.899 0,246.899" style="fill:rgb(194,64,64);fill-rule:nonzero;"/>
            </g>
            <g transform="matrix(5.18379,0,0,12.7606,2992.37,2268.71)">
                <path d="M0,-4.773C-8.642,2.505 -21.371,6.139 -38.193,6.139L-82.866,6.139L-82.866,-76.729L-38.193,-76.729C-21.371,-76.729 -8.642,-73.148 0,-65.986C8.638,-58.825 12.96,-48.647 12.96,-35.465C12.96,-22.277 8.638,-12.047 0,-4.773M32.773,-73.146L7.835,-92.529C5.398,-94.306 6.066,-97.788 6.862,-100.575C7.721,-103.572 9.11,-106.643 12.468,-106.942L26.717,-108.228C24.624,-109.36 22.361,-110.336 20.12,-111.341C4.659,-118.274 -13.758,-121.743 -35.123,-121.743L-138.452,-121.743L-138.452,116.97L-82.866,116.97L-82.866,51.153L-35.123,51.153C-13.758,51.153 4.659,47.631 20.12,40.582C35.578,33.538 47.514,23.59 55.928,10.743C57.509,8.329 58.892,5.794 60.176,3.198L50.19,-54.008C50.101,-54.513 50.064,-55.014 50.049,-55.513C42.643,-54.601 35.188,-59.133 34.111,-66.374L33.456,-69.595" style="fill:rgb(194,64,64);fill-rule:nonzero;"/>
            </g>
        </g>
    </g>
</svg>
