<svg width="100" height="100" xmlns="http://www.w3.org/2000/svg">
  <defs>
    <linearGradient id="emergencyGrad" x1="0%" y1="0%" x2="100%" y2="100%">
      <stop offset="0%" style="stop-color:#FF4444;stop-opacity:1" />
      <stop offset="100%" style="stop-color:#C85450;stop-opacity:1" />
    </linearGradient>
    <radialGradient id="faceGrad2" cx="50%" cy="40%" r="60%">
      <stop offset="0%" style="stop-color:#F5E6D3;stop-opacity:1" />
      <stop offset="100%" style="stop-color:#E8D4C0;stop-opacity:1" />
    </radialGradient>
  </defs>
  
  <!-- Avatar background -->
  <circle cx="50" cy="50" r="50" fill="url(#emergencyGrad)"/>
  
  <!-- Emergency uniform -->
  <path d="M20,80 Q30,75 50,75 Q70,75 80,80 L80,100 L20,100 Z" fill="#1A1A1A"/>
  
  <!-- Emergency badge -->
  <rect x="40" y="75" width="20" height="8" fill="#FF4444" rx="2"/>
  <text x="50" y="80" font-family="Arial, sans-serif" font-size="4" text-anchor="middle" fill="white" font-weight="bold">24/7</text>
  
  <!-- Face -->
  <circle cx="50" cy="45" r="18" fill="url(#faceGrad2)"/>
  
  <!-- Hair -->
  <path d="M32,35 Q40,25 50,27 Q60,25 68,35 Q65,30 50,32 Q35,30 32,35" fill="#2C2C2C"/>
  
  <!-- Eyes -->
  <circle cx="44" cy="42" r="2" fill="#1A1A1A"/>
  <circle cx="56" cy="42" r="2" fill="#1A1A1A"/>
  
  <!-- Emergency radio earpiece -->
  <circle cx="65" cy="40" r="3" fill="#1A1A1A"/>
  <path d="M65,40 Q68,38 70,40" stroke="#1A1A1A" stroke-width="1" fill="none"/>
  
  <!-- Mouth -->
  <path d="M46,52 Q50,54 54,52" stroke="#1A1A1A" stroke-width="1" fill="none"/>
  
  <!-- Emergency response badge -->
  <circle cx="75" cy="25" r="8" fill="#FF4444"/>
  <text x="75" y="28" font-family="Arial, sans-serif" font-size="8" text-anchor="middle" fill="white" font-weight="bold">🚨</text>
</svg>